HIERARCHY
ROOT Hips
{
  OFFSET -32.5998 29.0326 120.673
  CHANNELS 6 Xposition Yposition Zposition Zrotation Xrotation Yrotation
  JOINT LeftUpLeg
  {
    OFFSET 8.64259 1.95398 -2.38835
    CHANNELS 3 Zrotation Xrotation Yrotation
    JOINT LeftLeg
    {
      OFFSET 43.7702 0 0
      CHANNELS 3 Zrotation Xrotation Yrotation
      JOINT LeftFoot
      {
        OFFSET 40.6238 0 0
        CHANNELS 3 Zrotation Xrotation Yrotation
        JOINT LeftToeBase
        {
          OFFSET 12.7242 0 0
          CHANNELS 3 Zrotation Xrotation Yrotation
          End Site
          {
            OFFSET 0 0 0
          }
        }
      }
    }
  }
  JOINT RightUpLeg
  {
    OFFSET -8.2249 1.95398 -2.59336
    CHANNELS 3 Zrotation Xrotation Yrotation
    JOINT RightLeg
    {
      OFFSET 43.5653 0 0
      CHANNELS 3 Zrotation Xrotation Yrotation
      JOINT RightFoot
      {
        OFFSET 40.6238 0 0
        CHANNELS 3 Zrotation Xrotation Yrotation
        JOINT RightToeBase
        {
          OFFSET 12.7242 0 0
          CHANNELS 3 Zrotation Xrotation Yrotation
          End Site
          {
            OFFSET 0 0 0
          }
        }
      }
    }
  }
  JOINT Spine
  {
    OFFSET 0.165834 0.87714 6.61349
    CHANNELS 3 Zrotation Xrotation Yrotation
    JOINT Spine1
    {
      OFFSET 7.38963 1.71661e-005 0
      CHANNELS 3 Zrotation Xrotation Yrotation
      JOINT Spine2
      {
        OFFSET 11.9445 1.14441e-005 0
        CHANNELS 3 Zrotation Xrotation Yrotation
        JOINT Spine3
        {
          OFFSET 14.7254 4.19617e-005 0
          CHANNELS 3 Zrotation Xrotation Yrotation
          JOINT Spine4
          {
            OFFSET 10.9679 0 0
            CHANNELS 3 Zrotation Xrotation Yrotation
            JOINT RightShoulder
            {
              OFFSET 2.46616 -1.6653 3.69651
              CHANNELS 3 Zrotation Xrotation Yrotation
              JOINT RightArm
              {
                OFFSET 13.0012 0 0
                CHANNELS 3 Zrotation Xrotation Yrotation
                JOINT RightForeArm
                {
                  OFFSET 28.7848 1.62311e-005 0
                  CHANNELS 3 Zrotation Xrotation Yrotation
                  JOINT RightHand
                  {
                    OFFSET 26.5688 1.62095e-005 0
                    CHANNELS 3 Zrotation Xrotation Yrotation
                    End Site
                    {
                      OFFSET 0 0 0
                    }
                  }
                }
              }
            }
            JOINT LeftShoulder
            {
              OFFSET 2.38034 -1.29275 -3.7523
              CHANNELS 3 Zrotation Xrotation Yrotation
              JOINT LeftArm
              {
                OFFSET 16.3182 6.07031e-005 0
                CHANNELS 3 Zrotation Xrotation Yrotation
                JOINT LeftForeArm
                {
                  OFFSET 27.0901 0 0
                  CHANNELS 3 Zrotation Xrotation Yrotation
                  JOINT LeftHand
                  {
                    OFFSET 24.5451 1.51738e-005 0
                    CHANNELS 3 Zrotation Xrotation Yrotation
                    End Site
                    {
                      OFFSET 0 0 0
                    }
                  }
                }
              }
            }
            JOINT Neck
            {
              OFFSET 5.0226 -0.0266342 0
              CHANNELS 3 Zrotation Xrotation Yrotation
              JOINT Head
              {
                OFFSET 6.69364 2.86102e-005 0
                CHANNELS 3 Zrotation Xrotation Yrotation
                End Site
                {
                  OFFSET 0 0 0
                }
              }
            }
          }
        }
      }
    }
  }
}
MOTION
Frames:	18
Frame Time:	0.0416667
44.879 83.407 11.5319 88.8359 -27.0276 99.4399 -157.777 24.5495 74.4203 -55.9576 5.27531 -14.142 89.0109 19.4777 4.48553 1.0575 -2.44071 -14.032 -179.737 16.8846 78.8204 -79.7939 -26.0321 -9.41067 72.1665 -7.14287 -1.38652 26.6183 -1.02151 7.68573 0.287614 8.54628 -92.5206 9.74321 -0.566946 -4.95433 -1.93692 -0.784202 -4.9247 -24.3979 0.946363 -4.89618 -4.38528 0.946363 -4.89619 93.4644 -25.0725 -101.323 22.7508 -20.728 -27.1982 -40.2382 9.22637 -86.3274 -6.10179 -0.0903973 -3.93343 -86.4203 -45.0487 83.2957 -32.2996 27.9646 22.9946 31.5952 -8.76911 -69.7253 7.6135 0.406212 1.3073 17.0457 26.7358 3.86045 -17.7506 22.669 20.2066 
48.0671 83.7044 12.0358 88.0695 -21.1207 96.8852 -160.502 19.1492 72.7396 -51.1458 10.2484 -13.9589 87.6642 21.4332 9.31591 1.7225 0.990573 -18.6506 -173.262 19.4139 78.4021 -87.668 -11.7224 -9.84248 73.8999 -7.79171 -5.52238 16.3941 2.10442 9.75575 -0.0510939 8.61722 -92.1437 9.60107 -1.06915 -4.16843 -2.07594 -1.25143 -4.11747 -24.5575 0.231797 -4.2969 -4.54487 0.231793 -4.2969 92.6762 -27.1304 -102.332 26.3116 -12.9705 -17.5714 -37.2578 5.33052 -83.3338 -7.23721 -0.167163 -2.64691 -87.2518 -46.9986 82.3258 -22.9984 24.9004 9.76857 30.4069 -6.55399 -68.128 11.6581 0.656235 1.67767 18.8403 27.372 4.71873 -16.2603 23.409 18.0271 
50.9005 83.7252 12.2806 87.0149 -14.5388 95.6021 -163.548 14.6885 72.3786 -49.1089 10.8805 -12.7555 92.1589 22.6281 3.55691 -4.84797 0.206671 -19.9903 -167.231 23.616 78.604 -95.6398 -2.94251 -9.27079 76.9706 -9.8647 -8.01217 10.9913 3.85763 10.4644 -0.46119 8.6309 -91.9746 9.56656 -1.80993 -3.77654 -2.10834 -1.97426 -3.69338 -24.6013 -0.592331 -4.14525 -4.58864 -0.592347 -4.14525 92.6758 -28.0628 -102.026 28.9061 -6.67458 -8.02092 -39.0068 1.58891 -80.4226 -5.67879 -0.115548 -3.09722 -87.723 -48.5118 81.873 -15.4106 19.4088 -0.101216 30.6134 -6.58588 -72.3083 11.879 0.387835 -0.545021 19.7528 27.914 6.02302 -15.0378 23.8497 16.1355 
53.5014 83.5604 12.5059 85.4981 -7.60321 95.1128 -165.935 11.3463 72.6089 -46.4655 15.8001 -12.0148 92.9369 24.6418 5.40238 -7.01527 2.45598 -23.5746 -162.602 29.8065 77.6554 -101.932 -0.310709 -8.31593 79.2151 -11.6129 -9.0268 12.9734 3.79264 8.78173 -0.829863 8.63141 -91.9367 9.55654 -2.52769 -3.64654 -2.11676 -2.68561 -3.53191 -24.6178 -1.31603 -4.23663 -4.60511 -1.31602 -4.23663 93.5465 -28.323 -100.144 30.7861 -1.79335 0.504399 -38.695 -1.23232 -77.5078 -5.6526 -0.0543733 -4.47221 -88.0363 -47.8183 81.2634 -10.9564 12.5457 -9.05398 29.4794 -7.57793 -78.9106 11.6307 0.366588 -0.644599 21.6607 28.1564 6.01753 -14.146 24.0843 15.6981 
56.3864 83.213 12.9339 84.6887 -0.466218 95.5152 -168.058 7.75419 73.9075 -45.9412 18.7421 -10.4535 95.6014 25.7586 3.12254 -9.30675 1.92179 -23.5345 -159.931 36.6567 76.2441 -105.449 -2.1632 -7.5912 79.9217 -12.5938 -10.3 15.328 2.64086 9.42501 -1.2596 8.80261 -91.9479 9.202 -3.3844 -3.61646 -2.46917 -3.54019 -3.46412 -24.9807 -2.14227 -4.46516 -4.96807 -2.14228 -4.46516 93.9003 -28.2578 -99.4294 32.2061 3.18656 8.97285 -38.2528 -3.82577 -74.8592 -6.81377 -0.0920781 -3.95343 -88.5062 -46.0667 80.1867 -7.04962 3.46303 -18.112 26.9257 -8.27154 -86.0968 11.6503 0.404423 -0.332068 25.0891 27.7995 4.47561 -13.9869 23.9263 16.3258 
59.6178 82.9705 13.2652 84.389 6.24663 95.955 -170.473 4.16888 75.6629 -45.9463 21.6654 -8.16411 97.0327 26.4856 2.1522 -10.115 2.63189 -24.6111 -159.094 43.5941 75.2175 -104.774 -1.52628 -7.30111 83.2613 -13.9829 -7.47662 15.4921 3.03589 8.19793 -1.66628 8.89906 -91.9845 8.9958 -4.20881 -3.63849 -2.6729 -4.36479 -3.44975 -25.1973 -2.92205 -4.73391 -5.18469 -2.92206 -4.73391 93.9741 -27.9013 -99.3777 33.7153 8.118 19.2037 -36.9667 -4.66453 -73.889 -6.23189 -0.112978 -3.35239 -88.8203 -43.4391 79.1209 -4.54363 -6.29225 -25.0725 23.6216 -8.31993 -93.6699 9.88799 0.245524 -1.24686 26.7242 26.7997 2.46657 -13.6102 23.5135 16.9812 
63.3281 82.8682 13.1782 83.4329 11.3468 97.3539 -172.632 0.643201 77.6887 -44.359 23.8329 -5.77053 96.7476 26.4516 2.16528 -3.86953 2.63414 -22.8921 -159.41 50.7728 74.4145 -99.5584 -2.6216 -7.35215 85.6022 -14.7976 -5.02248 20.0866 1.41306 7.7501 -1.98225 8.92816 -92.117 8.92111 -4.8971 -3.85785 -2.74567 -5.06204 -3.63851 -25.278 -3.51289 -5.14988 -5.26534 -3.51287 -5.14989 94.2638 -27.6158 -98.8509 34.5072 10.5819 27.8744 -35.4437 -4.36206 -73.9086 -6.75791 -0.0380221 -4.89427 -88.3455 -40.7933 79.304 -3.77205 -16.1815 -31.8047 22.7191 -7.64089 -100.128 11.2603 0.217836 -1.79075 28.2431 26.1623 0.352993 -14.3962 23.4088 17.6553 
67.9485 83.4169 12.4022 82.4717 14.2299 99.5465 -173.692 -3.21799 80.1795 -40.48 31.1194 -4.33619 88.3867 24.3237 10.4496 6.58762 3.28499 -20.4942 -162.072 56.0676 76.6013 -89.7242 -3.94375 -7.26051 86.1318 -14.1037 -1.77421 23.5254 0.85428 5.16103 -2.17444 8.99536 -92.3977 8.76046 -5.40246 -4.38855 -2.90586 -5.5902 -4.14646 -25.4331 -3.83614 -5.8072 -5.42046 -3.83615 -5.80719 94.8185 -26.997 -97.8469 34.7034 10.7329 34.1361 -33.8388 -2.88446 -75.6836 -7.66567 -0.0898195 -4.09662 -87.4463 -38.1891 80.2385 -7.50905 -25.856 -39.059 20.1464 -5.45623 -104.416 13.3274 0.561695 0.38181 29.5604 26.4165 0.719719 -14.7591 23.5018 16.7745 
73.3584 84.1492 10.7158 81.5485 14.7383 100.754 -175.864 -7.13603 80.0086 -35.8085 30.7759 -2.27629 80.7764 19.2885 13.8673 13.1292 7.83603 -26.3394 -164.79 58.4493 79.1879 -77.9383 -9.32197 -6.96856 84.8347 -12.6357 2.10779 27.4481 -0.425219 4.03281 -2.21633 8.94856 -92.5926 8.83924 -5.57394 -4.75844 -2.82756 -5.77773 -4.50851 -25.3462 -3.88915 -6.21079 -5.33354 -3.88914 -6.21079 94.7345 -26.677 -98.1091 34.0703 8.99601 38.768 -35.9209 -1.70645 -78.0837 -6.37428 0.0168409 -5.95743 -86.8333 -35.0546 80.6203 -15.1741 -31.3232 -42.8337 18.3332 -3.69429 -108.94 12.8513 0.616306 0.898174 29.8372 26.713 1.30644 -15.1211 23.5401 16.4917 
79.6314 85.1157 8.34076 80.9944 14.6226 102.122 -177.644 -9.34468 80.1481 -33.7772 25.8298 0.0766728 71.5452 9.01443 7.67037 18.1313 10.6861 -31.1931 -168.882 56.5996 83.6456 -65.9018 -20.0476 -6.34484 83.9156 -14.0018 0.688676 29.6642 -1.12802 3.10663 -2.169 8.84488 -92.8206 9.03065 -5.58494 -5.19774 -2.63771 -5.80801 -4.94707 -25.1402 -3.76844 -6.6321 -5.12755 -3.76843 -6.63211 94.5475 -26.2747 -98.6231 33.6657 4.9607 40.4907 -36.3127 0.175982 -79.634 -5.61397 0.0666257 -7.2519 -86.438 -35.0751 81.3363 -17.5263 -30.3318 -43.5331 17.1347 -4.05494 -112.284 14.1935 0.770054 1.53647 29.6564 26.8778 2.04813 -15.6132 23.4239 15.932 
85.9587 85.5737 5.9819 80.9968 14.0675 102.906 -177.866 -9.24952 80.6882 -35.6294 25.761 0.745263 61.1313 0.494858 4.97006 21.8814 7.846 -23.6181 -172.182 52.4526 88.0883 -55.6654 -25.1067 -5.47937 82.0356 -14.2199 -1.58949 29.0204 -0.54533 1.80392 -2.02017 8.78404 -92.8932 9.15247 -5.32321 -5.35323 -2.51763 -5.55334 -5.11406 -25.008 -3.47233 -6.70143 -4.99529 -3.47231 -6.70142 93.6684 -27.0309 -100.274 31.2096 0.34984 39.3997 -38.8903 2.17933 -81.9895 -6.17077 0.0633553 -6.96423 -86.4035 -36.7467 81.7536 -16.7276 -23.6413 -40.796 19.1944 -7.55077 -115.07 15.1673 0.80571 1.43483 30.7603 26.8034 1.75492 -16.6307 23.4167 14.6346 
91.3197 85.1912 4.03101 80.95 13.4678 102.707 -177.099 -5.26094 81.1437 -43.5672 27.0262 0.216255 54.0052 -4.57462 0.759704 25.4228 1.43666 -7.02543 -169.548 51.2414 87.3575 -57.9352 -30.0655 -8.02973 73.0179 -7.39443 1.65842 31.2276 -2.00057 3.92374 -1.8249 8.72419 -92.7179 9.29287 -4.85816 -5.0312 -2.37792 -5.07462 -4.81278 -24.8704 -3.12486 -6.25526 -4.85779 -3.12485 -6.25525 93.1219 -24.9158 -102.121 31.1624 -0.480248 33.974 -42.5122 3.18755 -83.9562 -5.67304 -0.00518695 -5.74509 -87.092 -39.9036 81.2216 -14.1114 -12.0394 -34.1742 22.0035 -12.5022 -115.399 12.235 0.524697 0.443926 32.4946 26.3621 0.69803 -16.7909 23.3529 14.1215 
96.6803 84.3184 2.0157 82.0895 14.2316 102.562 -174.943 2.37334 82.6559 -61.6932 29.5152 0.19595 52.7692 -5.80045 1.47432 32.2098 4.6891 -9.59533 -167.768 47.1631 87.3672 -61.0809 -20.7452 -8.62562 78.2833 -10.1358 2.64253 38.6432 -4.72493 2.44244 -1.50212 8.80298 -92.4737 9.16571 -4.10289 -4.60779 -2.50628 -4.30152 -4.42301 -24.9997 -2.53089 -5.62534 -4.98709 -2.53086 -5.62532 91.9167 -26.2063 -104.26 26.4171 -0.00685609 27.8 -43.3585 4.7391 -87.2421 -7.29149 -0.081788 -4.12502 -88.7551 -42.9126 79.1124 -13.7272 0.794938 -26.779 24.2504 -15.4824 -111.563 10.7865 0.342721 -0.655046 33.6327 24.9454 0.917512 -15.5795 22.1276 12.632 
101.339 84.3094 -0.162948 83.196 15.8291 103.994 -172.701 12.367 85.8263 -79.9183 29.2633 1.42723 55.886 -3.9736 3.26151 23.2088 1.21804 -7.6643 -169.894 42.8708 89.6408 -62.0962 -18.0529 -7.76413 81.6318 -12.1508 3.39227 38.3267 -4.53761 2.07725 -1.0267 8.85416 -92.3923 9.08158 -3.11666 -4.51951 -2.59302 -3.31238 -4.37824 -25.0755 -1.61647 -5.24537 -5.06283 -1.61645 -5.24536 91.5026 -27.0436 -104.818 21.9646 -1.39295 19.2921 -46.8558 6.74097 -89.6419 -6.2425 -0.0667744 -4.30721 -89.7216 -46.5556 78.3916 -14.79 14.9713 -19.9688 27.5887 -16.8208 -101.183 6.96816 0.16173 -1.26502 33.2186 23.047 1.81489 -13.4012 20.2916 11.0182 
105.578 84.2761 -2.49383 83.75 18.8889 105.014 -172 24.0942 88.3425 -94.505 23.9496 2.6973 58.0995 -2.84684 3.56761 22.1516 -0.436742 -4.89129 -174.156 37.8919 90.5054 -61.8973 -18.157 -6.28644 85.0157 -14.4921 3.57943 40.7941 -5.60163 2.55777 -0.62512 8.94466 -92.3889 8.91545 -2.31084 -4.57214 -2.76111 -2.50961 -4.46629 -25.2351 -0.831913 -5.054 -5.22245 -0.831894 -5.054 90.9185 -25.68 -106.582 16.4339 -1.2907 9.74274 -45.8501 8.45775 -91.8456 -5.13927 -0.117641 -2.80661 -90.4407 -49.8094 78.0274 -19.5741 20.4196 -11.9003 29.1734 -15.2285 -92.8192 6.84083 0.10775 -1.90944 32.8724 21.0636 3.63936 -10.6825 18.0496 8.36357 
109.942 84.0153 -4.98947 83.0268 20.4303 105.756 -170.66 37.2716 89.4056 -103.814 18.4331 3.20222 61.3907 -0.833449 6.37081 18.983 0.715512 -9.59742 -176.641 34.1255 90.5239 -61.7696 -18.2266 -5.62886 88.2268 -16.8278 3.51989 41.5464 -5.89377 2.4117 -0.0575778 8.81901 -92.2703 9.19332 -1.13113 -4.41609 -2.48445 -1.32421 -4.36218 -24.9593 0.246855 -4.55171 -4.94666 0.246877 -4.5517 91.4055 -23.2304 -106.545 10.1563 -3.12865 -1.42913 -45.894 9.91219 -92.7469 -6.88196 -0.245085 -1.14899 -90.629 -51.1231 78.0387 -24.692 20.6503 1.94881 25.9357 -15.1227 -93.3261 4.29147 -0.0208442 -3.12506 32.969 18.6886 4.30273 -10.0688 15.6184 6.6617 
114.422 83.9385 -7.95285 83.1826 21.9353 104.91 -169.131 47.9274 88.7768 -107.056 17.0571 3.30536 66.3619 2.698 8.28657 18.6835 0.826791 -10.0196 -178.412 28.6363 89.1659 -60.1906 -16.638 -5.64003 91.706 -18.6649 5.20275 43.6492 -6.70698 1.98402 0.574773 8.72965 -91.9791 9.40248 0.256539 -3.94146 -2.27444 0.0829598 -3.94892 -24.7665 1.42844 -3.68282 -4.75388 1.42844 -3.68282 92.4851 -20.1396 -105.406 5.21572 -2.97747 -10.7035 -46.9418 13.5379 -96.1152 -4.24601 -0.125104 -1.94917 -89.7549 -48.9742 78.8765 -28.6319 21.5731 17.1761 20.6968 -16.9286 -100.896 3.4614 -0.0552975 -3.71441 32.5092 15.2843 4.43928 -9.5318 12.3831 5.94637 
119.329 84.3995 -11.8417 83.3397 23.8759 103.457 -167.607 55.5269 86.9764 -104.069 16.9361 2.78886 70.6388 5.80564 8.71272 21.5438 1.59941 -9.71628 178.805 21.1845 86.8387 -55.5329 -16.0312 -5.64681 94.1359 -20.0009 6.30789 44.1015 -6.93742 2.5544 1.12938 8.54158 -91.6811 9.8014 1.48981 -3.45343 -1.87344 1.33646 -3.51555 -24.3884 2.45844 -2.84675 -4.37578 2.45844 -2.84676 93.4893 -16.4789 -104.575 2.83385 0.602262 -17.5526 -45.1856 16.5494 -101.014 -2.67193 -0.0799447 -2.22563 -88.6361 -46.8539 80.1472 -30.3132 25.2726 30.94 21.0817 -20.6083 -107.015 1.47133 -0.142914 -6.02346 30.8992 11.8056 5.25045 -9.01788 8.8822 4.96872 
